{
    "asset" : {
        "generator" : "Khronos glTF Blender I/O v1.5.17",
        "version" : "2.0"
    },
    "scene" : 0,
    "scenes" : [
        {
            "name" : "Scene",
            "nodes" : [
                0,
                1,
                2
            ]
        }
    ],
    "nodes" : [
        {
            "mesh" : 0,
            "name" : "Sphere"
        },
        {
            "mesh" : 1,
            "name" : "Torus",
            "scale" : [
                1.3507239818572998,
                0.10935912281274796,
                1.3507239818572998
            ]
        },
        {
            "mesh" : 2,
            "name" : "Torus.001",
            "scale" : [
                1.8746767044067383,
                0.15178006887435913,
                1.8746767044067383
            ]
        }
    ],
    "materials" : [
        {
            "doubleSided" : true,
            "name" : "Material.001",
            "pbrMetallicRoughness" : {
                "baseColorTexture" : {
                    "index" : 0
                },
                "metallicFactor" : 0,
                "roughnessFactor" : 0.5
            }
        },
        {
            "doubleSided" : true,
            "name" : "Material.004",
            "pbrMetallicRoughness" : {
                "baseColorTexture" : {
                    "index" : 1
                },
                "metallicFactor" : 0,
                "roughnessFactor" : 0.5
            }
        },
        {
            "doubleSided" : true,
            "name" : "Material.003",
            "pbrMetallicRoughness" : {
                "baseColorTexture" : {
                    "index" : 2
                },
                "metallicFactor" : 0,
                "roughnessFactor" : 0.5
            }
        }
    ],
    "meshes" : [
        {
            "name" : "Sphere",
            "primitives" : [
                {
                    "attributes" : {
                        "POSITION" : 0,
                        "NORMAL" : 1,
                        "TEXCOORD_0" : 2
                    },
                    "indices" : 3,
                    "material" : 0
                }
            ]
        },
        {
            "name" : "Torus",
            "primitives" : [
                {
                    "attributes" : {
                        "POSITION" : 4,
                        "NORMAL" : 5,
                        "TEXCOORD_0" : 6
                    },
                    "indices" : 7,
                    "material" : 1
                }
            ]
        },
        {
            "name" : "Torus.001",
            "primitives" : [
                {
                    "attributes" : {
                        "POSITION" : 8,
                        "NORMAL" : 9,
                        "TEXCOORD_0" : 10
                    },
                    "indices" : 11,
                    "material" : 2
                }
            ]
        }
    ],
    "textures" : [
        {
            "sampler" : 0,
            "source" : 0
        },
        {
            "sampler" : 0,
            "source" : 1
        },
        {
            "sampler" : 0,
            "source" : 2
        }
    ],
    "images" : [
        {
            "bufferView" : 4,
            "mimeType" : "image/jpeg",
            "name" : "2k_saturn"
        },
        {
            "bufferView" : 9,
            "mimeType" : "image/png",
            "name" : "solid-color-image (2)"
        },
        {
            "bufferView" : 14,
            "mimeType" : "image/png",
            "name" : "solid-color-image (3)"
        }
    ],
    "accessors" : [
        {
            "bufferView" : 0,
            "componentType" : 5126,
            "count" : 559,
            "max" : [
                1.0000001192092896,
                1,
                1.0000001192092896
            ],
            "min" : [
                -0.9999999403953552,
                -1,
                -1.000000238418579
            ],
            "type" : "VEC3"
        },
        {
            "bufferView" : 1,
            "componentType" : 5126,
            "count" : 559,
            "type" : "VEC3"
        },
        {
            "bufferView" : 2,
            "componentType" : 5126,
            "count" : 559,
            "type" : "VEC2"
        },
        {
            "bufferView" : 3,
            "componentType" : 5123,
            "count" : 2880,
            "type" : "SCALAR"
        },
        {
            "bufferView" : 5,
            "componentType" : 5126,
            "count" : 2304,
            "max" : [
                1.1423430442810059,
                0.1423492729663849,
                1.1423430442810059
            ],
            "min" : [
                -1.1423430442810059,
                -0.1423492729663849,
                -1.1423430442810059
            ],
            "type" : "VEC3"
        },
        {
            "bufferView" : 6,
            "componentType" : 5126,
            "count" : 2304,
            "type" : "VEC3"
        },
        {
            "bufferView" : 7,
            "componentType" : 5126,
            "count" : 2304,
            "type" : "VEC2"
        },
        {
            "bufferView" : 8,
            "componentType" : 5123,
            "count" : 3456,
            "type" : "SCALAR"
        },
        {
            "bufferView" : 10,
            "componentType" : 5126,
            "count" : 2304,
            "max" : [
                0.9426500797271729,
                0.0449502095580101,
                0.9426501393318176
            ],
            "min" : [
                -0.9426501989364624,
                -0.0449502095580101,
                -0.9426501393318176
            ],
            "type" : "VEC3"
        },
        {
            "bufferView" : 11,
            "componentType" : 5126,
            "count" : 2304,
            "type" : "VEC3"
        },
        {
            "bufferView" : 12,
            "componentType" : 5126,
            "count" : 2304,
            "type" : "VEC2"
        },
        {
            "bufferView" : 13,
            "componentType" : 5123,
            "count" : 3456,
            "type" : "SCALAR"
        }
    ],
    "bufferViews" : [
        {
            "buffer" : 0,
            "byteLength" : 6708,
            "byteOffset" : 0
        },
        {
            "buffer" : 0,
            "byteLength" : 6708,
            "byteOffset" : 6708
        },
        {
            "buffer" : 0,
            "byteLength" : 4472,
            "byteOffset" : 13416
        },
        {
            "buffer" : 0,
            "byteLength" : 5760,
            "byteOffset" : 17888
        },
        {
            "buffer" : 0,
            "byteLength" : 199916,
            "byteOffset" : 23648
        },
        {
            "buffer" : 0,
            "byteLength" : 27648,
            "byteOffset" : 223564
        },
        {
            "buffer" : 0,
            "byteLength" : 27648,
            "byteOffset" : 251212
        },
        {
            "buffer" : 0,
            "byteLength" : 18432,
            "byteOffset" : 278860
        },
        {
            "buffer" : 0,
            "byteLength" : 6912,
            "byteOffset" : 297292
        },
        {
            "buffer" : 0,
            "byteLength" : 38668,
            "byteOffset" : 304204
        },
        {
            "buffer" : 0,
            "byteLength" : 27648,
            "byteOffset" : 342872
        },
        {
            "buffer" : 0,
            "byteLength" : 27648,
            "byteOffset" : 370520
        },
        {
            "buffer" : 0,
            "byteLength" : 18432,
            "byteOffset" : 398168
        },
        {
            "buffer" : 0,
            "byteLength" : 6912,
            "byteOffset" : 416600
        },
        {
            "buffer" : 0,
            "byteLength" : 38669,
            "byteOffset" : 423512
        }
    ],
    "samplers" : [
        {
            "magFilter" : 9729,
            "minFilter" : 9987
        }
    ],
    "buffers" : [
        {
            "byteLength" : 462184,
            "uri" : "data:application/octet-stream;base64,"
        }
    ]
}
